<svg width="647" height="491" viewBox="0 0 647 491" fill="none" xmlns="http://www.w3.org/2000/svg">
<mask id="mask0_1_191" style="mask-type:alpha" maskUnits="userSpaceOnUse" x="0" y="0" width="647" height="491">
<path d="M586.584 13.6343C446.012 -48.4411 389.665 134.169 294.764 166.714C200.316 213.029 106.741 164.774 50.9866 210.106C-37.3899 281.962 5.48337 401.907 64.6288 451.176C149.446 521.829 295.965 491.234 446.012 407.783C634.003 303.229 709.842 68.0639 586.584 13.6343Z" fill="#98C3E8"/>
</mask>
<g mask="url(#mask0_1_191)">
<rect x="-105.46" y="-79.9083" width="805.162" height="681.485" fill="url(#paint0_linear_1_191)"/>
<path d="M-3.86868 137.157C69.9588 174.386 152.62 278.594 152.62 328.352C152.62 389.559 22.8438 483.368 -36.6809 536.583L471.278 569.395C453.189 488.416 407.517 308.39 435.31 268.406C471.278 216.664 616.829 229.284 698.439 238.749L720.524 8.43232C680.771 25.0488 591.799 72.7948 543.212 60.1747C498.238 48.4931 411.963 -1.87408 375.365 -33.845" stroke="white" stroke-opacity="0.2" stroke-width="15"/>
<path d="M186.064 80.3668C206.256 185.534 261.153 378.327 319.206 308.159C391.771 220.45 449.192 106.869 503.459 181.959C546.872 242.03 610.73 360.533 637.232 412.275" stroke="white" stroke-opacity="0.2" stroke-width="15"/>
<path fill-rule="evenodd" clip-rule="evenodd" d="M413.623 141.69C413.623 146.108 410.041 149.69 405.623 149.69C401.204 149.69 397.623 146.108 397.623 141.69C397.623 137.272 401.204 133.69 405.623 133.69C410.041 133.69 413.623 137.272 413.623 141.69ZM82.6226 314.69C87.0408 314.69 90.6226 311.108 90.6226 306.69C90.6226 302.272 87.0408 298.69 82.6226 298.69C78.2043 298.69 74.6226 302.272 74.6226 306.69C74.6226 311.108 78.2043 314.69 82.6226 314.69ZM256.623 416.69C261.041 416.69 264.623 413.108 264.623 408.69C264.623 404.272 261.041 400.69 256.623 400.69C252.204 400.69 248.623 404.272 248.623 408.69C248.623 413.108 252.204 416.69 256.623 416.69ZM530.623 298.69C535.041 298.69 538.623 295.108 538.623 290.69C538.623 286.272 535.041 282.69 530.623 282.69C526.204 282.69 522.623 286.272 522.623 290.69C522.623 295.108 526.204 298.69 530.623 298.69Z" fill="white" fill-opacity="0.6"/>
<circle cx="52.6226" cy="393.69" r="18" stroke="white" stroke-opacity="0.4" stroke-width="8"/>
<circle cx="632.623" cy="116.69" r="18" stroke="white" stroke-opacity="0.4" stroke-width="8"/>
<circle cx="382.623" cy="349.69" r="18" stroke="white" stroke-opacity="0.4" stroke-width="8"/>
</g>
<defs>
<linearGradient id="paint0_linear_1_191" x1="355.238" y1="-125.629" x2="317.415" y2="545.197" gradientUnits="userSpaceOnUse">
<stop stop-color="#D1ECFF"/>
<stop offset="1" stop-color="#1070B1"/>
</linearGradient>
</defs>
</svg>
