<svg width="688" height="579" viewBox="0 0 688 579" fill="none" xmlns="http://www.w3.org/2000/svg">
<path opacity="0.4" d="M624.23 31.1001C479.455 -37.7926 415.592 150.599 315.762 181.596C216.017 226.943 119.839 173.866 60.4517 219.364C-33.683 291.484 7.6338 417.653 67.8971 470.74C154.318 546.87 307.895 519.47 466.635 437.152C665.518 334.018 751.174 91.5073 624.23 31.1001Z" fill="#98C3E8"/>
<path opacity="0.2" d="M143.123 106.19C148.123 118.69 133.123 138.19 111.623 144.69C93.1227 150.283 75.1227 149.69 70.1227 136.69C65.6996 125.19 79.6227 112.69 95.6227 106.19C111.623 99.6899 138.123 93.6899 143.123 106.19Z" fill="#98C3E8"/>
<path opacity="0.2" d="M306.623 80.6899C302.732 70.7503 316.438 47.5557 333.425 42.4884C348.041 38.1282 361.734 27.8536 365.623 38.1899C369.063 47.3336 358.531 68.0145 345.883 73.1049C333.235 78.1953 310.514 90.6295 306.623 80.6899Z" fill="#98C3E8"/>
<path opacity="0.2" d="M295.415 572.905C291.524 562.966 303.438 547.556 320.425 542.488C335.041 538.128 349.237 538.674 353.126 549.011C356.566 558.154 345.531 568.015 332.883 573.105C320.235 578.195 299.306 582.845 295.415 572.905Z" fill="#98C3E8"/>
<path opacity="0.2" d="M471.195 522.24C463.101 503.21 488.901 460.925 524.195 451.24C554.565 442.906 603.605 459.95 611.695 479.739C618.852 497.245 571.975 494.35 545.697 504.083C519.418 513.816 479.29 541.269 471.195 522.24Z" fill="#98C3E8"/>
</svg>
